<svg xmlns="http://www.w3.org/2000/svg" xmlns:xlink="http://www.w3.org/1999/xlink" version="1.1" x="0px" y="0px" viewBox="0 0 90 112.5" enable-background="new 0 0 90 90" xml:space="preserve"><g><path d="M12.322,48.612v16.391c0,1.324,1.075,2.398,2.399,2.398h16.393c1.324,0,2.398-1.074,2.398-2.398V48.612   c0-1.326-1.074-2.4-2.398-2.4H14.721C13.397,46.212,12.322,47.286,12.322,48.612z"/><path d="M56.488,48.612v16.391c0,1.324,1.075,2.398,2.399,2.398H75.28c1.324,0,2.398-1.074,2.398-2.398V48.612   c0-1.326-1.074-2.4-2.398-2.4H58.888C57.563,46.212,56.488,47.286,56.488,48.612z"/><path d="M34.436,26.278v16.391c0,1.324,1.075,2.398,2.399,2.398h16.393c1.324,0,2.398-1.074,2.398-2.398V26.278   c0-1.326-1.074-2.4-2.398-2.4H36.835C35.511,23.878,34.436,24.952,34.436,26.278z"/><path d="M34.437,48.612v16.391c0,1.324,1.074,2.398,2.398,2.398h16.393c1.324,0,2.398-1.074,2.398-2.398V48.612   c0-1.327-1.074-2.4-2.398-2.4H36.835C35.511,46.212,34.437,47.286,34.437,48.612z"/></g><text x="0" y="105" fill="#000000" font-size="5px" font-weight="bold" font-family="'Helvetica Neue', Helvetica, Arial-Unicode, Arial, Sans-serif">Created by Jonathan Li</text><text x="0" y="110" fill="#000000" font-size="5px" font-weight="bold" font-family="'Helvetica Neue', Helvetica, Arial-Unicode, Arial, Sans-serif">from the Noun Project</text></svg>